<svg width="478" height="203" viewBox="0 0 478 203" fill="none" xmlns="http://www.w3.org/2000/svg">
<path d="M437.957 85.8037C447.116 85.8037 454.78 87.336 460.947 90.4014C467.152 93.4666 471.602 97.7691 474.298 103.309C477.031 108.848 477.769 115.349 476.514 122.809H447.042C447.374 119.153 446.489 116.291 444.384 114.223C442.279 112.118 438.733 111.064 433.747 111.064C430.571 111.064 427.912 111.434 425.77 112.173C423.665 112.911 422.021 113.927 420.839 115.22C419.694 116.512 418.974 118.008 418.679 119.707C418.346 121.036 418.365 122.255 418.734 123.363C419.141 124.434 419.898 125.413 421.006 126.299C422.151 127.185 423.647 127.98 425.493 128.682C427.377 129.383 429.611 130.011 432.196 130.564L441.06 132.559C447.116 133.888 452.195 135.643 456.294 137.822C460.43 139.964 463.68 142.512 466.044 145.467C468.408 148.421 469.959 151.727 470.697 155.383C471.473 159.039 471.492 163.028 470.753 167.349C469.497 174.809 466.598 181.124 462.056 186.295C457.513 191.465 451.585 195.399 444.272 198.095C436.96 200.791 428.503 202.139 418.9 202.139C409.077 202.139 400.73 200.679 393.86 197.762C387.028 194.807 382.079 190.302 379.014 184.245C375.985 178.151 375.247 170.377 376.798 160.923H406.048C405.605 164.394 405.974 167.312 407.156 169.676C408.338 172.039 410.24 173.83 412.862 175.049C415.484 176.268 418.752 176.877 422.667 176.877C425.991 176.877 428.835 176.471 431.198 175.658C433.562 174.846 435.427 173.72 436.794 172.279C438.16 170.839 438.992 169.195 439.287 167.349C439.582 165.65 439.287 164.136 438.4 162.807C437.514 161.477 435.908 160.276 433.581 159.205C431.254 158.134 428.06 157.156 423.997 156.27L413.139 153.832C403.5 151.616 396.224 147.96 391.312 142.863C386.401 137.767 384.664 130.786 386.104 121.923C387.286 114.684 390.26 108.369 395.024 102.977C399.826 97.5477 405.919 93.3371 413.306 90.3457C420.729 87.3174 428.946 85.8037 437.957 85.8037ZM159.334 200.809H126.096L123.169 179.093H85.7578L75.5732 200.809H42.334L98.6182 87.3545H140.721L159.334 200.809ZM238.068 87.3545C246.489 87.3545 253.598 88.8869 259.396 91.9521C265.195 95.0174 269.368 99.4312 271.916 105.192C274.464 110.954 275.074 117.86 273.744 125.911C272.415 134.036 269.479 140.887 264.937 146.464C260.73 151.636 255.444 155.649 249.08 158.503L265.103 200.809H231.643L217.938 163.36H207.319L201.062 200.809H170.262L189.097 87.3545H238.068ZM372.38 112.173H321.414L318.312 131.673H365.067L360.857 156.491H314.102L310.999 175.991H361.744L357.533 200.809H275.988L294.823 87.3545H376.591L372.38 112.173ZM35.5547 2.17285C36.3834 -0.716188 40.4733 -0.72723 41.3174 2.15723L77.4639 125.771C77.7366 126.704 77.5402 127.712 76.9375 128.475L60.2012 149.643C58.6085 151.657 55.3857 150.869 54.9014 148.348L51.9824 133.151C51.8336 132.375 51.9974 131.571 52.4375 130.915L57.0137 124.093C57.1758 123.851 57.2244 123.549 57.1465 123.269L39.3896 59.2705C39.1181 58.2932 37.7316 58.2946 37.4619 59.2725L19.8779 123.131C19.79 123.45 19.8663 123.793 20.0811 124.045L24.002 128.647C24.5212 129.257 25.5109 129.039 25.7266 128.268L33.5303 100.371C34.4707 97.0127 39.4185 97.6919 39.4189 101.18V197.075C39.4189 199.916 35.8374 201.166 34.0703 198.941L23.9795 186.238C23.5581 185.708 23.3281 185.05 23.3281 184.372V157.356C23.328 157.131 23.2517 156.911 23.1113 156.734L0.651367 128.472C0.0488028 127.713 -0.150791 126.71 0.116211 125.778L35.5547 2.17285ZM96.5664 156.048H120.063L115.017 118.599H114.13L96.5664 156.048ZM211.318 139.429H222.114C225.733 139.429 228.91 138.985 231.643 138.099C234.375 137.175 236.591 135.735 238.29 133.777C239.989 131.783 241.097 129.161 241.614 125.911C242.131 122.661 241.872 120.02 240.838 117.989C239.804 115.921 238.087 114.407 235.687 113.447C233.286 112.45 230.313 111.951 226.768 111.951H215.909L211.318 139.429Z" fill="white"/>
</svg>
